<?xml version="1.0" standalone="no"?>
<!DOCTYPE svg PUBLIC "-//W3C//DTD SVG 20010904//EN"
 "http://www.w3.org/TR/2001/REC-SVG-20010904/DTD/svg10.dtd">
<svg version="1.0" xmlns="http://www.w3.org/2000/svg"
 width="256.000000pt" height="256.000000pt" viewBox="0 0 256.000000 256.000000"
 preserveAspectRatio="xMidYMid meet">
<metadata>
Created by potrace 1.11, written by Peter Selinger 2001-2013
</metadata>
<g transform="translate(0.000000,256.000000) scale(0.100000,-0.100000)"
fill="#000000" stroke="none">
<path d="M2001 2515 c-235 -53 -554 -214 -814 -411 -31 -24 -61 -44 -66 -44
-17 0 -176 -83 -189 -99 -7 -9 -11 -10 -7 -4 4 8 1 11 -9 7 -8 -3 -12 -12 -9
-20 4 -10 0 -12 -11 -8 -16 6 -128 -62 -174 -106 -19 -18 -22 -40 -6 -40 3 0
3 4 0 8 -3 5 6 19 21 32 15 13 24 16 21 8 -4 -8 0 -15 8 -15 7 0 11 4 9 8 -8
12 6 39 21 39 8 0 14 6 14 13 0 8 4 7 10 -3 9 -14 14 -7 11 13 -1 5 3 6 9 2 8
-5 7 -11 -1 -21 -6 -8 -9 -17 -6 -20 3 -3 12 3 19 15 7 12 19 21 27 21 8 0 4
-8 -10 -20 -13 -10 -19 -19 -12 -20 6 0 15 5 18 10 3 6 12 10 18 10 7 0 0 -8
-16 -18 -15 -10 -24 -22 -20 -26 5 -4 1 -6 -7 -4 -8 2 -14 -2 -13 -9 3 -16
-24 -37 -32 -24 -4 7 -16 6 -36 -5 -31 -15 -34 -35 -8 -42 12 -3 12 -2 -1 7
-17 12 -11 20 19 26 12 2 19 0 16 -6 -4 -5 -11 -7 -16 -3 -6 3 -9 0 -7 -7 3
-16 -51 -73 -60 -64 -4 3 0 10 8 15 8 6 11 10 6 10 -5 0 -18 -8 -29 -17 -12
-11 -17 -12 -12 -4 5 9 4 12 -2 8 -11 -7 -10 -43 2 -54 4 -5 5 -2 0 6 -5 9 -4
12 3 7 8 -5 10 -2 6 8 -3 9 -1 16 5 16 18 0 13 -25 -9 -45 -19 -17 -20 -17
-30 10 -5 14 -8 30 -5 35 3 5 1 11 -4 15 -5 3 -8 14 -6 25 2 11 0 20 -5 20 -5
0 -11 13 -15 30 l-7 30 -242 0 c-134 0 -245 -3 -248 -6 -6 -6 20 -82 107 -314
26 -69 47 -133 48 -142 1 -10 4 -18 8 -18 4 0 9 -10 12 -22 3 -13 17 -54 31
-91 l25 -68 -53 -109 c-30 -60 -56 -107 -58 -105 -2 2 -4 -4 -5 -13 0 -9 -19
-66 -41 -127 -84 -232 -93 -384 -31 -529 41 -94 84 -147 143 -175 94 -46 259
-37 446 25 122 41 213 92 290 164 l55 51 -42 -22 c-23 -12 -39 -27 -36 -32 3
-6 1 -7 -4 -4 -6 4 -48 -11 -94 -32 -124 -57 -204 -75 -339 -76 -101 0 -121 3
-163 23 -52 26 -90 80 -101 144 -14 78 36 269 112 432 l38 80 63 -172 63 -172
229 0 228 0 92 283 c50 155 106 325 123 378 l31 96 126 -376 126 -376 228 0
228 0 28 75 c15 41 105 284 199 540 252 682 251 680 237 686 -7 2 -118 3 -247
2 l-234 -3 -28 -105 c-15 -58 -30 -114 -32 -125 -2 -11 -20 -78 -39 -150 -19
-71 -50 -188 -68 -258 -19 -75 -35 -123 -40 -115 -4 7 -42 117 -84 243 -42
127 -79 237 -82 245 -3 8 -25 71 -48 140 l-41 125 -197 3 c-109 1 -197 6 -197
11 0 13 218 217 305 286 257 205 539 335 724 335 65 0 86 -5 132 -27 111 -57
141 -158 100 -343 -17 -78 -19 -101 -6 -88 16 16 58 244 59 325 l1 92 -35 36
c-19 20 -60 48 -90 63 -48 23 -69 27 -160 29 -64 2 -130 -3 -169 -12z m-996
-525 c-3 -5 -12 -10 -18 -10 -7 0 -6 4 3 10 19 12 23 12 15 0z m-35 -20 c0 -5
-5 -10 -11 -10 -5 0 -7 5 -4 10 3 6 8 10 11 10 2 0 4 -4 4 -10z m4 -32 c-3 -4
-12 -4 -21 -1 -12 5 -14 3 -8 -7 6 -9 4 -11 -5 -5 -10 6 -12 4 -7 -8 3 -8 0
-20 -7 -26 -9 -8 -19 -4 -36 14 -13 14 -19 25 -14 25 5 0 16 -9 24 -19 13 -20
36 -19 24 0 -9 15 14 38 36 36 10 -1 17 -5 14 -9z m-109 -28 c3 -5 1 -10 -4
-10 -6 0 -11 5 -11 10 0 6 2 10 4 10 3 0 8 -4 11 -10z m172 -217 c-4 -7 -129
-390 -132 -403 0 -3 -14 -43 -30 -90 -16 -47 -30 -87 -30 -90 -9 -37 -18 -60
-24 -60 -4 0 -21 59 -39 132 l-33 132 58 85 c61 90 222 301 230 301 2 0 2 -3
0 -7z"/>
<path d="M800 1860 c-8 -5 -15 -20 -15 -34 -1 -14 2 -23 6 -20 4 2 10 0 14 -6
4 -6 11 -8 16 -4 6 3 4 11 -5 17 -12 9 -13 16 -5 27 9 13 10 12 5 -3 -5 -15
-3 -16 14 -7 11 6 20 13 20 16 0 3 -4 3 -9 -1 -6 -3 -13 1 -18 9 -6 10 -13 12
-23 6z"/>
<path d="M729 1815 c-1 -3 -2 -11 -3 -17 -2 -15 -27 -12 -39 5 -6 8 -7 5 -3
-6 4 -13 1 -17 -12 -15 -13 2 -17 -4 -18 -32 0 -45 4 -54 22 -39 8 6 14 8 14
4 0 -4 6 -2 14 4 8 6 18 11 22 10 21 -3 26 2 14 16 -8 10 -9 19 -3 28 12 15
13 47 1 47 -4 0 -9 -2 -9 -5z m-1 -42 c-16 -15 -16 -17 0 -30 9 -8 11 -12 4
-8 -7 4 -19 1 -27 -5 -8 -7 -15 -9 -15 -5 0 4 -6 3 -13 -3 -10 -9 -13 -4 -13
21 0 24 5 33 17 33 11 0 15 -6 11 -16 -3 -9 4 -7 19 8 27 25 42 30 17 5z"/>
<path d="M673 1746 c0 -15 22 -15 34 0 4 5 4 6 -1 2 -5 -4 -14 -3 -21 2 -8 7
-12 5 -12 -4z"/>
<path d="M755 1811 c-3 -5 -1 -12 5 -16 5 -3 10 1 10 9 0 18 -6 21 -15 7z"/>
<path d="M255 1331 c-3 -5 -2 -12 3 -15 5 -3 9 1 9 9 0 17 -3 19 -12 6z"/>
<path d="M273 1175 c0 -8 4 -12 9 -9 5 3 6 10 3 15 -9 13 -12 11 -12 -6z"/>
</g>
</svg>
